<svg width="46" height="46" viewBox="0 0 46 46" fill="none" xmlns="http://www.w3.org/2000/svg">
<path d="M15.5482 17.4196L12.5354 20.4324C11.9785 20.9912 11.605 21.7192 11.605 22.5308V23.8823C11.605 24.4078 12.0308 24.8327 12.5554 24.8327H17.1534C17.678 24.8327 18.1038 24.4316 18.1038 23.9374C18.1038 23.4413 17.678 23.0402 17.1524 23.0402H14.6538C14.1292 23.0402 13.7034 22.9262 13.7034 22.7865C13.7034 22.6449 13.7034 22.5318 13.7034 22.5318C13.7034 22.2276 13.8213 21.9397 14.0247 21.7534L17.0374 18.7416C17.5953 18.1828 17.9508 17.4548 17.9508 16.6431V15.1871C17.9508 13.7159 16.5632 12.5137 14.8534 12.5137C13.1446 12.5137 11.757 13.715 11.757 15.1871V15.7792C11.757 16.1071 12.1819 16.3723 12.7074 16.3723H12.9051C13.4297 16.3723 13.8555 16.1071 13.8555 15.7792C13.8555 15.4523 13.8555 15.1871 13.8555 15.1871C13.8555 14.7138 14.3127 14.3071 14.8534 14.3071C15.4123 14.3071 15.8523 14.7138 15.8523 15.1871V16.6431C15.8523 16.9463 15.7344 17.2172 15.5482 17.4196Z" fill="#C83232"/>
<path d="M25.7882 12.6475H25.5915C25.0659 12.6475 24.4216 13.0124 24.1507 13.4629L20.2883 19.9056C20.0193 20.3561 19.7998 21.1231 19.7998 21.6182C19.7998 22.1124 20.2246 22.5144 20.7502 22.5144H23.6879C24.2144 22.5144 24.6383 22.9393 24.6383 23.4648V23.8821C24.6383 24.4076 25.0631 24.8325 25.5887 24.8325H25.7873C26.3129 24.8325 26.7377 24.4086 26.7377 23.8821V23.4648C26.7377 22.9393 26.8878 22.5144 27.0741 22.5144C27.2623 22.5144 27.4125 22.1134 27.4125 21.6182C27.4125 21.1221 27.2623 20.7201 27.0751 20.7201C26.8897 20.7201 26.7377 20.2953 26.7377 19.7697V13.5979C26.7386 13.0723 26.3148 12.6475 25.7882 12.6475ZM24.6392 19.7697C24.6392 20.2953 24.2153 20.7201 23.6888 20.7192H23.0349C22.5103 20.7192 22.3022 20.3533 22.5693 19.9018L24.1555 17.2217C24.4225 16.7712 24.6402 16.8292 24.6402 17.3548L24.6392 19.7697Z" fill="#C83232"/>
<path d="M29.8653 11.0012C29.5032 11.0012 29.2104 11.426 29.2104 11.9516V18.2575C29.2104 18.783 29.5041 19.2079 29.8653 19.2069C30.2274 19.2069 30.521 18.7821 30.521 18.2565V15.0242C30.521 14.7163 30.8176 14.4768 31.1721 14.4768C31.5247 14.4768 31.8221 14.7163 31.8221 15.0242V18.2565C31.8221 18.7821 32.1158 19.2069 32.477 19.2069C32.8372 19.2069 33.1308 18.7821 33.1308 18.2565V15.0242C33.1308 14.1356 32.2536 13.4171 31.1711 13.4171C31.0542 13.4171 30.943 13.4314 30.8366 13.4551C30.655 13.497 30.5201 13.1406 30.5201 12.615V11.9516C30.521 11.426 30.2264 11.0012 29.8653 11.0012Z" fill="#C83232"/>
<path d="M45.1089 24.344L43.2299 23.7576C43.4153 21.9547 43.382 20.1328 43.1073 18.3204C41.3301 6.57543 30.3302 -1.53333 18.5834 0.244853C6.84032 2.02304 -1.26844 13.0248 0.509747 24.7698C0.713131 26.1079 1.03627 27.4014 1.46584 28.6369C1.81274 29.6282 2.59301 30.2982 3.11383 30.1737C3.63369 30.0492 3.68216 29.1805 3.32766 28.1931C2.90284 27.0108 2.58636 25.7705 2.39058 24.4827C0.768254 13.7766 8.16137 3.7461 18.8695 2.12568C29.5775 0.504311 39.6061 7.89742 41.2284 18.6055C41.4575 20.129 41.5107 21.662 41.3843 23.1817C41.3843 23.1817 40.5993 22.9365 39.6299 22.6342C38.6595 22.332 38.0636 22.9184 38.2936 23.941L39.5377 29.478C39.7677 30.5006 40.5812 30.7553 41.351 30.0444L45.5251 26.1982C46.2969 25.4864 46.1087 24.6567 45.1089 24.344Z" fill="#C83232"/>
<path d="M44.2418 39.534C44.2932 39.2622 44.2675 38.9742 44.1449 38.6967C43.3219 36.8377 40.7159 32.3424 34.3264 30.7761C31.3973 30.0557 27.0226 29.1975 22.819 29.1975L22.3885 29.2004C16.1415 29.2935 10.5437 30.5613 10.366 30.6041C10.1702 30.6355 5.54181 31.43 2.45398 34.7402L2.46538 34.7516C1.93126 35.1973 1.43706 36.0071 1.21657 36.4034L1.19756 36.391C0.787938 37.0687 0.480961 37.7339 0.258568 38.4249C0.169231 38.7033 0.173033 38.9856 0.245263 39.2489C0.112208 39.4779 0.0285732 39.7402 0.0266724 40.0215L6.13991e-05 43.3831C-0.00754175 44.2508 0.691948 44.9645 1.56346 44.974L11.9494 45.0596H11.9579C12.8218 45.0596 13.5289 44.3582 13.5365 43.4952L13.5631 40.1327C13.565 39.8695 13.4957 39.6243 13.3826 39.4038C13.4329 39.3316 13.4928 39.2612 13.5318 39.1871C13.6762 38.9105 14.37 37.9915 17.2145 37.8166C18.1269 37.7596 19.2208 37.732 20.4658 37.732C24.0574 37.732 27.7782 37.9696 27.8152 37.9725L27.9312 37.9734C28.318 37.9734 30.2558 38.0419 30.3794 39.3924C30.3936 39.5473 30.4336 39.6908 30.483 39.8296C30.3043 40.0947 30.2007 40.4141 30.2112 40.7581L30.3224 44.1253C30.3537 44.9769 31.0475 45.645 31.8991 45.645L43.0614 45.2782C43.9282 45.2459 44.6106 44.516 44.5821 43.6511L44.4709 40.2877C44.4614 40.0092 44.3758 39.7554 44.2418 39.534ZM11.6367 43.1559L1.90275 43.0761L1.92366 40.3618L11.6576 40.4416L11.6367 43.1559ZM27.9464 36.0746C27.9435 36.0746 27.9397 36.0746 27.9369 36.0746C27.8998 36.0727 24.1201 35.8303 20.4649 35.8303C19.1809 35.8303 18.0471 35.8598 17.0967 35.9187C13.6772 36.1306 12.3542 37.3338 11.8458 38.308C11.8306 38.3365 11.7878 38.3764 11.8306 38.3764L2.30952 38.3679C2.45113 38.039 2.6222 37.7121 2.82273 37.3775C2.95483 37.1903 3.62106 36.3046 3.80639 36.0784L3.8463 36.0365C6.4827 33.2091 10.6369 32.4859 10.7348 32.4669C10.7908 32.4536 16.3696 31.1895 22.417 31.1002L22.82 31.0973C26.8344 31.0973 31.0466 31.9261 33.8749 32.6218C38.7286 33.8126 41.0637 36.909 42.054 38.7442L32.2393 38.9619C31.8886 36.8387 29.7369 36.0746 27.9464 36.0746ZM32.2108 43.7328L32.1205 41.0185L42.5815 40.6764L42.6718 43.3888L32.2108 43.7328Z" fill="#C83232"/>
</svg>
