<svg width="54" height="54" viewBox="0 0 54 54" fill="none" xmlns="http://www.w3.org/2000/svg">
<g filter="url(#filter0_d_61_119)">
<circle cx="27" cy="23" r="23" fill="white"/>
</g>
<path fill-rule="evenodd" clip-rule="evenodd" d="M37.955 12.5968C37.8026 12.1397 37.3085 11.8926 36.8514 12.045L36.4973 12.163C35.7686 12.4059 35.1528 12.6111 34.6686 12.8364C34.1539 13.0758 33.7073 13.3726 33.3687 13.8424C33.03 14.3123 32.8897 14.8298 32.8253 15.3938C32.7925 15.6818 32.7774 16.0048 32.7706 16.3627H20.3166C17.926 16.3627 16.7306 16.3627 16.2134 17.1471C15.6962 17.9315 16.1671 19.0301 17.1088 21.2274L17.6073 22.3907C18.0471 23.4167 18.2668 23.9296 18.7039 24.2177C19.1409 24.506 19.699 24.506 20.8152 24.506H32.5866C32.4645 25.134 32.2718 25.5016 31.9982 25.7752C31.6762 26.0971 31.2242 26.307 30.3706 26.4218C29.4918 26.5399 28.3272 26.5418 26.6574 26.5418H18.5141C18.0323 26.5418 17.6416 26.9323 17.6416 27.4143C17.6416 27.8961 18.0323 28.2868 18.5141 28.2868H26.7212C28.3122 28.2868 29.5945 28.2868 30.6031 28.1511C31.6502 28.0104 32.5318 27.7092 33.2321 27.009C33.9323 26.3088 34.2335 25.4271 34.3742 24.38C34.5098 23.3714 34.5098 22.0891 34.5098 20.4982V17.39C34.5098 16.5605 34.5111 16.0117 34.5591 15.5917C34.6045 15.194 34.6837 15.0022 34.7843 14.8627C34.8848 14.7233 35.0417 14.5874 35.4046 14.4186C35.7879 14.2403 36.3081 14.0655 37.095 13.8032L37.4032 13.7004C37.8603 13.5481 38.1074 13.054 37.955 12.5968ZM30.1473 18.9802C30.6292 18.9802 31.0198 19.3708 31.0198 19.8527C31.0198 20.3345 30.6292 20.7252 30.1473 20.7252H26.6574C26.1755 20.7252 25.7849 20.3345 25.7849 19.8527C25.7849 19.3708 26.1755 18.9802 26.6574 18.9802H30.1473Z" fill="#C83232"/>
<path d="M30.7291 30.3223C29.7654 30.3223 28.9842 31.1036 28.9842 32.0672C28.9842 33.0309 29.7654 33.8122 30.7291 33.8122C31.6929 33.8122 32.4741 33.0309 32.4741 32.0672C32.4741 31.1036 31.6929 30.3223 30.7291 30.3223Z" fill="#C83232"/>
<path d="M20.2594 30.3228C19.2957 30.3228 18.5144 31.1039 18.5144 32.0677C18.5144 33.0314 19.2957 33.8127 20.2594 33.8127C21.2231 33.8127 22.0044 33.0314 22.0044 32.0677C22.0044 31.1039 21.2231 30.3228 20.2594 30.3228Z" fill="#C83232"/>
<defs>
<filter id="filter0_d_61_119" x="0" y="0" width="54" height="54" filterUnits="userSpaceOnUse" color-interpolation-filters="sRGB">
<feFlood flood-opacity="0" result="BackgroundImageFix"/>
<feColorMatrix in="SourceAlpha" type="matrix" values="0 0 0 0 0 0 0 0 0 0 0 0 0 0 0 0 0 0 127 0" result="hardAlpha"/>
<feOffset dy="4"/>
<feGaussianBlur stdDeviation="2"/>
<feComposite in2="hardAlpha" operator="out"/>
<feColorMatrix type="matrix" values="0 0 0 0 0 0 0 0 0 0 0 0 0 0 0 0 0 0 0.25 0"/>
<feBlend mode="normal" in2="BackgroundImageFix" result="effect1_dropShadow_61_119"/>
<feBlend mode="normal" in="SourceGraphic" in2="effect1_dropShadow_61_119" result="shape"/>
</filter>
</defs>
</svg>
