<svg width="351" height="137" viewBox="0 0 351 137" fill="none" xmlns="http://www.w3.org/2000/svg">
<path d="M164.132 119.864C158.119 119.864 154.831 115.59 154.268 107.041H142.149C141.209 109.201 140.411 111.221 139.753 113.1L137.921 118.455H128.057L150.251 71.9518H165.4L168.36 106.195C168.829 111.127 170.004 114.321 171.883 115.778C170.52 118.502 167.937 119.864 164.132 119.864ZM144.333 101.897H154.056L153.211 83.789V81.8866L148.208 92.9487L144.333 101.897ZM175.365 118.455L183.961 72.1631C188.611 71.6464 194.318 71.3881 201.083 71.3881C207.894 71.3881 212.873 72.3745 216.02 74.3474C219.167 76.3203 220.741 79.303 220.741 83.2958C220.741 87.2415 219.707 90.4591 217.641 92.9487C215.621 95.4383 212.849 97.0823 209.326 97.8809C210.125 101.78 211.44 105.303 213.272 108.45C214.963 111.409 216.795 113.359 218.768 114.298C218.063 116.271 216.983 117.68 215.527 118.526C214.118 119.418 212.38 119.864 210.313 119.864C208.293 119.864 206.484 119.277 204.887 118.103C203.29 116.881 201.858 115.167 200.589 112.959C197.912 108.168 196.432 101.991 196.15 94.4284H196.644C200.12 94.3344 202.727 93.395 204.465 91.61C206.203 89.778 207.072 86.9597 207.072 83.1548C207.072 78.4106 205.075 75.9445 201.083 75.7566H199.532C199.11 75.7566 198.781 75.7801 198.546 75.827L190.443 118.455H175.365ZM254.89 119.864C248.877 119.864 245.589 115.59 245.026 107.041H232.907C231.967 109.201 231.169 111.221 230.511 113.1L228.679 118.455H218.815L241.009 71.9518H256.158L259.118 106.195C259.587 111.127 260.762 114.321 262.641 115.778C261.278 118.502 258.695 119.864 254.89 119.864ZM235.091 101.897H244.814L243.969 83.789V81.8866L238.966 92.9487L235.091 101.897ZM271.017 84.1413C269.42 82.92 268.622 81.0176 268.622 78.434C268.622 75.8036 269.467 73.8072 271.158 72.445C272.896 71.0828 275.245 70.4017 278.204 70.4017C280.083 70.4017 283.254 70.7305 287.716 71.3881L292.508 72.0927C294.105 72.2806 295.725 72.3745 297.369 72.3745C299.06 72.3745 300.47 72.0222 301.597 71.3176C303.288 72.8208 304.133 74.6527 304.133 76.8135C304.133 78.9742 303.171 80.8297 301.245 82.3798C299.272 84.0238 297.017 84.8459 294.481 84.8459C293.259 84.8459 291.662 84.6815 289.689 84.3527C287.388 91.5865 286.237 97.7165 286.237 102.743C286.237 107.769 287.505 111.597 290.042 114.228C288.867 116.341 287.411 117.797 285.673 118.596C283.935 119.442 281.751 119.864 279.12 119.864C276.537 119.864 274.423 119.16 272.779 117.75C271.182 116.294 270.383 114.087 270.383 111.127C270.383 107.698 271.323 103.165 273.202 97.5286C275.081 91.9388 277.429 87.0066 280.248 82.7321C278.885 82.5912 277.5 82.5207 276.091 82.5207C273.178 82.5207 271.487 83.0609 271.017 84.1413ZM302.906 101.263C302.906 92.385 305.208 85.1512 309.811 79.5614C314.696 73.5019 321.39 70.4721 329.892 70.4721C336.045 70.4721 340.672 71.9753 343.772 74.9815C346.873 77.9408 348.423 82.5677 348.423 88.8621C348.423 98.4446 345.98 106.031 341.095 111.621C336.257 117.116 329.775 119.864 321.648 119.864C315.307 119.864 310.586 118.291 307.486 115.143C304.433 111.949 302.906 107.322 302.906 101.263ZM321.437 86.6778C319.323 95.133 318.266 102.696 318.266 109.366C318.266 110.963 318.524 112.278 319.041 113.312C319.605 114.345 320.591 114.862 322 114.862C323.457 114.862 324.631 114.533 325.523 113.875C326.416 113.171 327.214 112.043 327.919 110.493C329.046 107.957 330.127 104.011 331.16 98.6559C332.241 93.254 332.828 89.4492 332.922 87.2415C333.016 84.9868 333.063 83.0139 333.063 81.3229C333.063 79.6319 332.804 78.2462 332.288 77.1658C331.771 76.0854 330.808 75.5452 329.399 75.5452C328.037 75.5452 326.886 75.968 325.946 76.8135C324.208 78.4106 322.705 81.6987 321.437 86.6778Z" fill="white"/>
<path fill-rule="evenodd" clip-rule="evenodd" d="M0 0.752441V11.4254V53.863C0 53.9534 0.0085604 54.0373 0.030281 54.125C1.36836 59.5319 10.0222 75.3513 18.2122 73.8964C26.4667 72.43 60.8744 72.9046 83.61 73.5156C110.71 71.431 120.199 119.04 50.3984 105.219C49.6632 105.074 48.9302 105.625 48.9302 106.375V127.705C48.9302 128.358 49.4596 128.887 50.1128 128.887H79.3083C135.226 131.551 148.484 52.0293 81.3209 48.9816C80.4305 48.9412 79.803 47.9717 80.0988 47.131C84.4841 34.6707 77.0331 0.752441 48.7233 0.752441H0ZM53.8085 24.9366H26.9286C26.5428 24.9366 26.1786 25.1233 25.97 25.4478C20.6737 33.6856 22.9828 46.9158 26.313 48.9139C38.5285 48.9139 41.593 48.9139 53.8085 48.9139C60.6972 48.9139 59.4259 24.9366 53.8085 24.9366Z" fill="white"/>
</svg>
