<svg width="508" height="214" viewBox="0 0 508 214" fill="none" xmlns="http://www.w3.org/2000/svg">
<path d="M254.069 190.476C245.921 190.476 241.466 184.684 240.702 173.099H224.279C223.006 176.027 221.924 178.764 221.033 181.31L218.551 188.567H205.184L235.26 125.551H255.788L259.798 171.953C260.434 178.637 262.025 182.965 264.572 184.938C262.726 188.63 259.225 190.476 254.069 190.476ZM227.239 166.129H240.415L239.27 141.591V139.013L232.491 154.003L227.239 166.129ZM269.29 188.567L280.939 125.837C287.24 125.137 294.974 124.787 304.14 124.787C313.37 124.787 320.117 126.123 324.382 128.797C328.646 131.47 330.779 135.512 330.779 140.923C330.779 146.27 329.378 150.63 326.578 154.003C323.841 157.377 320.085 159.605 315.311 160.687C316.393 165.97 318.175 170.744 320.658 175.009C322.949 179.019 325.432 181.66 328.105 182.933C327.151 185.607 325.687 187.516 323.713 188.662C321.804 189.872 319.449 190.476 316.648 190.476C313.911 190.476 311.46 189.681 309.296 188.089C307.132 186.434 305.19 184.111 303.472 181.119C299.844 174.627 297.838 166.256 297.457 156.008H298.125C302.835 155.881 306.368 154.608 308.723 152.189C311.078 149.707 312.256 145.888 312.256 140.732C312.256 134.303 309.551 130.961 304.14 130.706H302.04C301.467 130.706 301.021 130.738 300.703 130.802L289.723 188.567H269.29ZM377.054 190.476C368.906 190.476 364.451 184.684 363.687 173.099H347.264C345.991 176.027 344.909 178.764 344.018 181.31L341.536 188.567H328.169L358.245 125.551H378.773L382.783 171.953C383.419 178.637 385.01 182.965 387.557 184.938C385.711 188.63 382.21 190.476 377.054 190.476ZM350.224 166.129H363.4L362.255 141.591V139.013L355.476 154.003L350.224 166.129ZM398.908 142.068C396.744 140.413 395.662 137.836 395.662 134.335C395.662 130.77 396.808 128.065 399.099 126.219C401.454 124.373 404.637 123.45 408.647 123.45C411.193 123.45 415.49 123.896 421.537 124.787L428.029 125.742C430.193 125.996 432.389 126.123 434.617 126.123C436.909 126.123 438.818 125.646 440.346 124.691C442.637 126.728 443.783 129.211 443.783 132.139C443.783 135.067 442.478 137.581 439.869 139.681C437.195 141.909 434.14 143.023 430.703 143.023C429.048 143.023 426.883 142.8 424.21 142.355C421.091 152.157 419.532 160.464 419.532 167.275C419.532 174.086 421.25 179.273 424.687 182.838C423.096 185.702 421.123 187.676 418.768 188.758C416.413 189.903 413.453 190.476 409.888 190.476C406.387 190.476 403.523 189.521 401.295 187.612C399.131 185.639 398.049 182.647 398.049 178.637C398.049 173.99 399.322 167.848 401.868 160.209C404.414 152.635 407.597 145.951 411.416 140.159C409.57 139.968 407.692 139.872 405.783 139.872C401.836 139.872 399.545 140.604 398.908 142.068ZM442.12 165.27C442.12 153.239 445.239 143.437 451.477 135.862C458.097 127.651 467.167 123.546 478.688 123.546C487.027 123.546 493.296 125.582 497.498 129.656C501.699 133.666 503.799 139.936 503.799 148.466C503.799 161.451 500.489 171.731 493.869 179.305C487.313 186.753 478.529 190.476 467.517 190.476C458.924 190.476 452.527 188.344 448.326 184.079C444.188 179.751 442.12 173.481 442.12 165.27ZM467.231 145.506C464.366 156.963 462.934 167.211 462.934 176.25C462.934 178.414 463.284 180.196 463.984 181.597C464.748 182.997 466.085 183.697 467.995 183.697C469.968 183.697 471.559 183.252 472.768 182.361C473.978 181.406 475.06 179.878 476.015 177.778C477.542 174.34 479.006 168.993 480.407 161.737C481.871 154.417 482.666 149.261 482.794 146.27C482.921 143.214 482.985 140.541 482.985 138.249C482.985 135.958 482.635 134.08 481.934 132.616C481.234 131.152 479.929 130.42 478.02 130.42C476.174 130.42 474.614 130.993 473.341 132.139C470.986 134.303 468.949 138.758 467.231 145.506Z" fill="#C83232"/>
<path fill-rule="evenodd" clip-rule="evenodd" d="M1 1V18.2381V88.623C2.98962 97.1545 17.0827 121.504 30.4148 119.136C43.7468 116.767 99.3192 117.534 136.04 118.521C180.114 115.131 195.346 193.121 80.0278 169.246V207.953H129.092C220.296 212.298 241.235 81.2693 129.092 78.7863C138.626 61.7073 127.827 1 79.6937 1H1ZM87.9069 40.0603H43.4985C34.2349 53.2873 38.0072 75.4914 43.4985 78.7863C63.228 78.7863 68.1774 78.7863 87.9069 78.7863C99.0329 78.7863 96.9796 40.0603 87.9069 40.0603Z" fill="#C83232"/>
<path d="M1 1C25.5438 2.04073 31.5608 1 79.6937 1M1 1H79.6937M1 1V18.2381V88.623C2.98962 97.1545 17.0827 121.504 30.4148 119.136C43.7468 116.767 99.3192 117.534 136.04 118.521C180.114 115.131 195.346 193.121 80.0278 169.246V207.953H129.092C220.296 212.298 241.235 81.2693 129.092 78.7863C138.626 61.7073 127.827 1 79.6937 1M87.9069 78.7863C99.0329 78.7863 96.9796 40.0603 87.9069 40.0603H43.4985C34.2349 53.2873 38.0072 75.4914 43.4985 78.7863M87.9069 78.7863C61.7394 78.7863 49.4356 78.7863 43.4985 78.7863M87.9069 78.7863C68.1774 78.7863 63.228 78.7863 43.4985 78.7863" stroke="black" stroke-width="0.0955019"/>
</svg>
