<svg width="16" height="18" viewBox="0 0 16 18" fill="none" xmlns="http://www.w3.org/2000/svg">
<path d="M6.48212 4.13036C6.27386 1.43387 3.77484 0.11079 3.66908 0.0567868C3.57021 0.00446945 3.45941 -0.0122459 3.35179 0.00892019C0.466788 0.547727 0.0328377 2.43785 0.0153925 2.5164C-0.00834246 2.62586 -0.00456742 2.74059 0.0262957 2.84778C3.46736 14.866 10.6188 17.0936 12.9696 17.8264C13.1505 17.8828 13.2999 17.9282 13.4133 17.97C13.5427 18.0175 13.6833 18.0083 13.8069 17.9442C13.8789 17.9074 15.5776 17.0065 15.993 14.0682C16.0115 13.9399 15.9931 13.8084 15.9407 13.6926C15.9036 13.6116 15.015 11.708 12.5509 11.0354C12.4673 11.0114 12.3797 11.0105 12.2958 11.033C12.2118 11.0554 12.134 11.1005 12.0689 11.1643C11.2915 11.9118 10.2176 12.7083 9.75418 12.7905C6.64785 11.0808 4.91314 7.80014 4.84772 7.17787C4.80956 6.82807 5.52154 5.5995 6.34037 4.60044C6.39184 4.53756 6.43104 4.46325 6.45545 4.38229C6.47986 4.30133 6.48895 4.21551 6.48212 4.13036Z" fill="#C83232"/>
</svg>
