<svg width="48" height="47" viewBox="0 0 48 47" fill="none" xmlns="http://www.w3.org/2000/svg">
<path fill-rule="evenodd" clip-rule="evenodd" d="M0.0967205 1.28258C0.424195 0.300182 1.48605 -0.230742 2.46842 0.0967326L3.2294 0.350383C4.79532 0.872308 6.11865 1.31336 7.15925 1.79743C8.26532 2.31201 9.22505 2.94973 9.9528 3.95941C10.6805 4.96911 10.982 6.08126 11.1204 7.29331C11.1911 7.91228 11.2234 8.60628 11.2381 9.37551H38.002C43.1395 9.37551 45.7082 9.37551 46.8197 11.0612C47.9312 12.7468 46.9192 15.1079 44.8955 19.8299L43.8242 22.3299C42.8792 24.5346 42.407 25.6369 41.4677 26.2561C40.5285 26.8756 39.3292 26.8756 36.9305 26.8756H11.6335C11.896 28.2251 12.3101 29.0151 12.898 29.6031C13.5899 30.2949 14.5614 30.7461 16.3958 30.9926C18.2842 31.2466 20.787 31.2506 24.3755 31.2506H41.8755C42.911 31.2506 43.7505 32.0899 43.7505 33.1256C43.7505 34.1611 42.911 35.0006 41.8755 35.0006H24.2382C20.8193 35.0006 18.0635 35.0006 15.8961 34.7091C13.6458 34.4066 11.7512 33.7594 10.2464 32.2546C8.7416 30.7499 8.09435 28.8551 7.79182 26.6049C7.50042 24.4374 7.50045 21.6816 7.5005 18.2627V11.5831C7.5005 9.80061 7.49767 8.62118 7.39462 7.71866C7.29707 6.86406 7.1267 6.45183 6.91065 6.15208C6.6946 5.85233 6.3574 5.56033 5.5775 5.19753C4.75387 4.81438 3.63587 4.43871 1.94485 3.87506L1.28257 3.65428C0.300196 3.32683 -0.230729 2.26498 0.0967205 1.28258ZM16.8755 15.0005C15.84 15.0005 15.0005 15.84 15.0005 16.8755C15.0005 17.911 15.84 18.7505 16.8755 18.7505H24.3755C25.411 18.7505 26.2505 17.911 26.2505 16.8755C26.2505 15.84 25.411 15.0005 24.3755 15.0005H16.8755Z" fill="black"/>
<path d="M15.625 39.375C17.6961 39.375 19.375 41.054 19.375 43.125C19.375 45.196 17.6961 46.875 15.625 46.875C13.5539 46.875 11.875 45.196 11.875 43.125C11.875 41.054 13.5539 39.375 15.625 39.375Z" fill="black"/>
<path d="M38.125 39.376C40.196 39.376 41.875 41.0547 41.875 43.126C41.875 45.197 40.196 46.876 38.125 46.876C36.054 46.876 34.375 45.197 34.375 43.126C34.375 41.0547 36.054 39.376 38.125 39.376Z" fill="black"/>
</svg>
