<svg width="60" height="48" viewBox="0 0 60 48" fill="none" xmlns="http://www.w3.org/2000/svg">
<path d="M4 34H3H1.5C1.22728 34 1 34.2273 1 34.5V37.5C1 37.7727 1.22728 38 1.5 38H6H7V39C7 43.4165 10.5835 47 15 47C19.4165 47 23 43.4165 23 39V38H24H36H37V39C37 43.4165 40.5835 47 45 47C49.4165 47 53 43.4165 53 39V28H39.75C38.7852 28 38 27.2148 38 26.25V24.75C38 23.7852 38.7852 23 39.75 23H59V22H36.75C35.7852 22 35 21.2148 35 20.25V18.75C35 17.7852 35.7852 17 36.75 17H56V16H33.75C32.7852 16 32 15.2148 32 14.25V12.75C32 11.7852 32.7852 11 33.75 11H59V10H54H53V9V4.5C53 2.56791 51.4321 1 49.5 1H25.5C23.5679 1 22 2.56791 22 4.5V9V10H21H16.8656C15.943 10 15.0528 10.3708 14.3946 11.029L5.02898 20.3946C4.37078 21.0528 4 21.943 4 22.8656V33V34ZM7.5 25H6.5V24V22.8656V22.4514L6.79289 22.1585L16.1585 12.7929L16.4514 12.5H16.8656H21H22V13.5V24V25H21H7.5ZM50.5 39C50.5 42.0367 48.0367 44.5 45 44.5C41.9633 44.5 39.5 42.0367 39.5 39C39.5 35.9633 41.9633 33.5 45 33.5C48.0367 33.5 50.5 35.9633 50.5 39ZM20.5 39C20.5 42.0367 18.0367 44.5 15 44.5C11.9633 44.5 9.5 42.0367 9.5 39C9.5 35.9633 11.9633 33.5 15 33.5C18.0367 33.5 20.5 35.9633 20.5 39Z" stroke="#C83232" stroke-width="2"/>
</svg>
