<svg width="54" height="54" viewBox="0 0 54 54" fill="none" xmlns="http://www.w3.org/2000/svg">
<g filter="url(#filter0_d_61_125)">
<circle cx="27" cy="23" r="23" fill="white"/>
</g>
<path d="M27 18.7594L26.4973 19.2432C26.6288 19.3799 26.8103 19.4571 27 19.4571C27.1897 19.4571 27.3712 19.3799 27.5027 19.2432L27 18.7594ZM22.3494 28.9178C22.0519 28.673 21.6122 28.7157 21.3674 29.0131C21.1225 29.3106 21.1652 29.7504 21.4627 29.9952L22.3494 28.9178ZM18.0158 26.1184C18.2007 26.4564 18.6246 26.5806 18.9627 26.3957C19.3007 26.2107 19.4249 25.7868 19.24 25.4488L18.0158 26.1184ZM18.3953 22.1422C18.3953 20.1414 19.5259 18.4635 21.0692 17.7581C22.5684 17.0728 24.5829 17.2542 26.4973 19.2432L27.5027 18.2756C25.2312 15.9156 22.5945 15.5266 20.4891 16.489C18.4276 17.4313 17 19.6193 17 22.1422H18.3953ZM23.7418 31.782C24.2183 32.1576 24.7298 32.5582 25.2482 32.8611C25.7664 33.1638 26.3578 33.41 27 33.41V32.0146C26.712 32.0146 26.3731 31.9024 25.9522 31.6563C25.5314 31.4104 25.095 31.0719 24.6056 30.6862L23.7418 31.782ZM30.2582 31.782C31.5853 30.7357 33.2817 29.5371 34.6124 28.0386C35.967 26.5133 37 24.6217 37 22.1422H35.6047C35.6047 24.1863 34.7682 25.7618 33.569 27.1121C32.346 28.4893 30.8043 29.5747 29.3944 30.6862L30.2582 31.782ZM37 22.1422C37 19.6193 35.5724 17.4313 33.5109 16.489C31.4055 15.5266 28.7688 15.9156 26.4973 18.2756L27.5027 19.2432C29.417 17.2542 31.4315 17.0728 32.9308 17.7581C34.474 18.4635 35.6047 20.1414 35.6047 22.1422H37ZM29.3944 30.6862C28.905 31.0719 28.4686 31.4104 28.0478 31.6563C27.6269 31.9024 27.288 32.0146 27 32.0146V33.41C27.6422 33.41 28.2336 33.1638 28.7518 32.8611C29.2702 32.5582 29.7817 32.1576 30.2582 31.782L29.3944 30.6862ZM24.6056 30.6862C23.8652 30.1025 23.1128 29.5461 22.3494 28.9178L21.4627 29.9952C22.2351 30.6308 23.0509 31.2373 23.7418 31.782L24.6056 30.6862ZM19.24 25.4488C18.718 24.4943 18.3953 23.4131 18.3953 22.1422H17C17 23.6654 17.3907 24.9753 18.0158 26.1184L19.24 25.4488Z" fill="#C83232"/>
<defs>
<filter id="filter0_d_61_125" x="0" y="0" width="54" height="54" filterUnits="userSpaceOnUse" color-interpolation-filters="sRGB">
<feFlood flood-opacity="0" result="BackgroundImageFix"/>
<feColorMatrix in="SourceAlpha" type="matrix" values="0 0 0 0 0 0 0 0 0 0 0 0 0 0 0 0 0 0 127 0" result="hardAlpha"/>
<feOffset dy="4"/>
<feGaussianBlur stdDeviation="2"/>
<feComposite in2="hardAlpha" operator="out"/>
<feColorMatrix type="matrix" values="0 0 0 0 0 0 0 0 0 0 0 0 0 0 0 0 0 0 0.25 0"/>
<feBlend mode="normal" in2="BackgroundImageFix" result="effect1_dropShadow_61_125"/>
<feBlend mode="normal" in="SourceGraphic" in2="effect1_dropShadow_61_125" result="shape"/>
</filter>
</defs>
</svg>
