<svg width="42" height="42" viewBox="0 0 42 42" fill="none" xmlns="http://www.w3.org/2000/svg">
<path d="M14.197 15.9051L11.4462 18.6558C10.9377 19.1661 10.5967 19.8308 10.5967 20.5718V21.8057C10.5967 22.2856 10.9854 22.6735 11.4644 22.6735H15.6626C16.1416 22.6735 16.5303 22.3073 16.5303 21.8561C16.5303 21.4031 16.1416 21.0369 15.6617 21.0369H13.3804C12.9014 21.0369 12.5127 20.9328 12.5127 20.8052C12.5127 20.6759 12.5127 20.5727 12.5127 20.5727C12.5127 20.295 12.6203 20.0321 12.806 19.862L15.5567 17.1121C16.0661 16.6019 16.3906 15.9372 16.3906 15.1961V13.8667C16.3906 12.5235 15.1237 11.4258 13.5626 11.4258C12.0024 11.4258 10.7355 12.5226 10.7355 13.8667V14.4074C10.7355 14.7067 11.1234 14.9488 11.6033 14.9488H11.7838C12.2628 14.9488 12.6515 14.7067 12.6515 14.4074C12.6515 14.1088 12.6515 13.8667 12.6515 13.8667C12.6515 13.4346 13.0689 13.0632 13.5626 13.0632C14.0729 13.0632 14.4746 13.4346 14.4746 13.8667V15.1961C14.4746 15.4729 14.367 15.7203 14.197 15.9051Z" fill="#C83232"/>
<path d="M23.5458 11.5479H23.3662C22.8863 11.5479 22.298 11.8811 22.0507 12.2924L18.5241 18.1748C18.2786 18.5861 18.0781 19.2864 18.0781 19.7385C18.0781 20.1897 18.466 20.5568 18.9459 20.5568H21.6281C22.1088 20.5568 22.4958 20.9447 22.4958 21.4245V21.8055C22.4958 22.2853 22.8837 22.6732 23.3636 22.6732H23.5449C24.0248 22.6732 24.4127 22.2862 24.4127 21.8055V21.4245C24.4127 20.9447 24.5498 20.5568 24.7198 20.5568C24.8917 20.5568 25.0288 20.1906 25.0288 19.7385C25.0288 19.2855 24.8917 18.9185 24.7207 18.9185C24.5515 18.9185 24.4127 18.5306 24.4127 18.0507V12.4156C24.4135 11.9357 24.0265 11.5479 23.5458 11.5479ZM22.4967 18.0507C22.4967 18.5306 22.1097 18.9185 21.6289 18.9176H21.0319C20.5529 18.9176 20.3629 18.5835 20.6067 18.1714L22.055 15.7243C22.2988 15.313 22.4976 15.3659 22.4976 15.8458L22.4967 18.0507Z" fill="#C83232"/>
<path d="M27.2688 10.0444C26.9382 10.0444 26.6709 10.4323 26.6709 10.9122V16.6697C26.6709 17.1495 26.939 17.5374 27.2688 17.5365C27.5994 17.5365 27.8675 17.1487 27.8675 16.6688V13.7176C27.8675 13.4364 28.1383 13.2178 28.4619 13.2178C28.7839 13.2178 29.0555 13.4364 29.0555 13.7176V16.6688C29.0555 17.1487 29.3236 17.5365 29.6533 17.5365C29.9822 17.5365 30.2503 17.1487 30.2503 16.6688V13.7176C30.2503 12.9063 29.4494 12.2502 28.4611 12.2502C28.3543 12.2502 28.2528 12.2633 28.1556 12.285C27.9899 12.3231 27.8666 11.9977 27.8666 11.5179V10.9122C27.8675 10.4323 27.5985 10.0444 27.2688 10.0444Z" fill="#C83232"/>
<path d="M41.1852 22.2267L39.4697 21.6913C39.6389 20.0452 39.6085 18.3818 39.3577 16.727C37.7351 6.00339 27.6918 -1.40021 16.9665 0.223337C6.2446 1.84689 -1.159 11.8919 0.464549 22.6155C0.650247 23.8373 0.94528 25.0183 1.3375 26.1464C1.65423 27.0514 2.36665 27.6632 2.84217 27.5495C3.31683 27.4358 3.36108 26.6427 3.03741 25.7411C2.64953 24.6616 2.36057 23.5292 2.18182 22.3534C0.700576 12.5783 7.45077 3.42011 17.2276 1.9406C27.0045 0.460232 36.161 7.21042 37.6422 16.9873C37.8513 18.3783 37.8999 19.778 37.7845 21.1655C37.7845 21.1655 37.0678 20.9416 36.1827 20.6657C35.2967 20.3897 34.7526 20.9251 34.9626 21.8588L36.0985 26.9143C36.3085 27.848 37.0513 28.0806 37.7542 27.4315L41.5653 23.9197C42.2699 23.2698 42.0981 22.5122 41.1852 22.2267Z" fill="#C83232"/>
<path d="M40.3945 36.0963C40.4413 35.8481 40.4179 35.5852 40.3059 35.3318C39.5545 33.6345 37.1751 29.5301 31.3413 28.1C28.6669 27.4423 24.6726 26.6587 20.8346 26.6587L20.4415 26.6613C14.7378 26.7463 9.62682 27.9039 9.46455 27.943C9.2858 27.9716 5.05988 28.697 2.24057 31.7194L2.25099 31.7298C1.76331 32.1368 1.31209 32.8761 1.11077 33.2379L1.09341 33.2267C0.719417 33.8454 0.439135 34.4528 0.236083 35.0836C0.154515 35.3379 0.157986 35.5956 0.223934 35.836C0.10245 36.0451 0.0260884 36.2846 0.0243529 36.5414L5.60597e-05 39.6107C-0.0068859 40.4029 0.631774 41.0546 1.4275 41.0633L10.9102 41.1414H10.918C11.7068 41.1414 12.3524 40.501 12.3593 39.713L12.3836 36.643C12.3854 36.4026 12.322 36.1787 12.2188 35.9774C12.2648 35.9115 12.3194 35.8472 12.355 35.7796C12.4869 35.527 13.1204 34.6879 15.7175 34.5283C16.5506 34.4762 17.5493 34.451 18.6861 34.451C21.9653 34.451 25.3625 34.668 25.3963 34.6706L25.5022 34.6714C25.8554 34.6714 27.6247 34.7339 27.7375 35.967C27.7505 36.1084 27.787 36.2395 27.8321 36.3662C27.669 36.6083 27.5744 36.8998 27.5839 37.2139L27.6855 40.2884C27.7141 41.0659 28.3475 41.6759 29.125 41.6759L39.3167 41.3409C40.1081 41.3114 40.7311 40.645 40.7051 39.8554L40.6036 36.7844C40.5949 36.5302 40.5168 36.2985 40.3945 36.0963ZM10.6247 39.4033L1.73728 39.3304L1.75637 36.8521L10.6438 36.925L10.6247 39.4033ZM25.5161 32.9377C25.5135 32.9377 25.51 32.9377 25.5074 32.9377C25.4736 32.936 22.0226 32.7147 18.6852 32.7147C17.5129 32.7147 16.4777 32.7416 15.6099 32.7954C12.4878 32.9889 11.2799 34.0875 10.8156 34.9769C10.8017 35.0029 10.7627 35.0394 10.8017 35.0394L2.10868 35.0316C2.23797 34.7313 2.39416 34.4328 2.57726 34.1274C2.69788 33.9564 3.30616 33.1477 3.47537 32.9412L3.51182 32.903C5.91894 30.3214 9.71186 29.6611 9.80124 29.6437C9.85243 29.6316 14.9461 28.4775 20.4676 28.3959L20.8355 28.3933C24.5008 28.3933 28.3467 29.15 30.9291 29.7852C35.3607 30.8725 37.4927 33.6996 38.3969 35.3752L29.4357 35.5739C29.1155 33.6354 27.1509 32.9377 25.5161 32.9377ZM29.4097 39.93L29.3272 37.4517L38.8785 37.1393L38.9609 39.6159L29.4097 39.93Z" fill="#C83232"/>
</svg>
