<svg width="29" height="29" viewBox="0 0 29 29" fill="none" xmlns="http://www.w3.org/2000/svg">
<path d="M8.45597 0C3.79302 0 0 3.79653 0 8.46069V20.544C0 25.207 3.79653 29 8.46069 29H20.544C25.207 29 29 25.2035 29 20.5393V8.45597C29 3.79302 25.2035 0 20.5393 0H8.45597ZM22.9583 4.83333C23.6253 4.83333 24.1667 5.37467 24.1667 6.04167C24.1667 6.70867 23.6253 7.25 22.9583 7.25C22.2913 7.25 21.75 6.70867 21.75 6.04167C21.75 5.37467 22.2913 4.83333 22.9583 4.83333ZM14.5 7.25C18.4984 7.25 21.75 10.5016 21.75 14.5C21.75 18.4984 18.4984 21.75 14.5 21.75C10.5016 21.75 7.25 18.4984 7.25 14.5C7.25 10.5016 10.5016 7.25 14.5 7.25ZM14.5 9.66667C13.2181 9.66667 11.9887 10.1759 11.0823 11.0823C10.1759 11.9887 9.66667 13.2181 9.66667 14.5C9.66667 15.7819 10.1759 17.0113 11.0823 17.9177C11.9887 18.8241 13.2181 19.3333 14.5 19.3333C15.7819 19.3333 17.0113 18.8241 17.9177 17.9177C18.8241 17.0113 19.3333 15.7819 19.3333 14.5C19.3333 13.2181 18.8241 11.9887 17.9177 11.0823C17.0113 10.1759 15.7819 9.66667 14.5 9.66667Z" fill="white"/>
</svg>
