<svg width="54" height="54" viewBox="0 0 54 54" fill="none" xmlns="http://www.w3.org/2000/svg">
<g filter="url(#filter0_d_352_1291)">
<circle cx="27" cy="23" r="23" fill="white"/>
</g>
<path d="M22.601 15.0079C21.113 14.9314 19.6207 15.4129 18.5223 16.4752C16.324 18.6055 16.5539 22.1804 18.906 24.4579L19.6573 25.1845L26.485 31.7934C26.6223 31.9257 26.8082 32 27.002 32C27.1958 32 27.3817 31.9257 27.519 31.7934L34.3437 25.1845L35.0951 24.4579C37.4471 22.1804 37.6756 18.6055 35.4758 16.4766C33.2776 14.3478 29.5884 14.5744 27.2378 16.8506L27.0005 17.08L26.7633 16.8506C25.5872 15.7104 24.0905 15.0843 22.601 15.0079Z" fill="#C83232"/>
<defs>
<filter id="filter0_d_352_1291" x="0" y="0" width="54" height="54" filterUnits="userSpaceOnUse" color-interpolation-filters="sRGB">
<feFlood flood-opacity="0" result="BackgroundImageFix"/>
<feColorMatrix in="SourceAlpha" type="matrix" values="0 0 0 0 0 0 0 0 0 0 0 0 0 0 0 0 0 0 127 0" result="hardAlpha"/>
<feOffset dy="4"/>
<feGaussianBlur stdDeviation="2"/>
<feComposite in2="hardAlpha" operator="out"/>
<feColorMatrix type="matrix" values="0 0 0 0 0 0 0 0 0 0 0 0 0 0 0 0 0 0 0.25 0"/>
<feBlend mode="normal" in2="BackgroundImageFix" result="effect1_dropShadow_352_1291"/>
<feBlend mode="normal" in="SourceGraphic" in2="effect1_dropShadow_352_1291" result="shape"/>
</filter>
</defs>
</svg>
