<svg width="36" height="47" viewBox="0 0 36 47" fill="none" xmlns="http://www.w3.org/2000/svg">
<path d="M32.8403 16.7388L32.8719 17.4735L33.5826 17.6623C34.404 17.8805 35.0013 18.6207 35 19.4906V19.4921V26.7257C35 27.5481 34.4681 28.2492 33.7214 28.5099L33.0995 28.7272L32.4886 28.5207C31.726 28.2629 31.1856 27.5557 31.1856 26.7257V26.172L29.2079 25.9617C28.5311 29.1083 27.3875 32.6377 25.551 35.3566C23.7286 38.0547 21.3 39.8591 18.003 39.8591C14.7042 39.8591 12.2752 38.0534 10.453 35.3538C8.61669 32.6335 7.47404 29.1026 6.79814 25.956L5.82044 26.0598V25.7257H5.8184H4.8184V26.7257C4.8184 27.7791 3.96622 28.6319 2.90818 28.6319C1.85151 28.6319 1 27.7784 1 26.7257V19.4921C1 18.6192 1.59594 17.8802 2.42214 17.6601L3.13232 17.4708L3.16375 16.7366C3.54267 7.88524 10.1134 1 18.003 1C25.8903 1 32.4594 7.88492 32.8403 16.7388ZM23.6423 43.0303L23.647 43.0283L23.624 43.5165C23.6082 43.8527 23.3934 44.1642 23.0573 44.2883L23.0562 44.2887L19.7329 45.5202C19.7323 45.5204 19.7318 45.5206 19.7312 45.5209C19.2797 45.6846 18.7809 45.4561 18.6107 45.0021C18.4476 44.5596 18.676 44.0579 19.1255 43.8917L19.1266 43.8913L22.4473 42.6587C22.6993 42.5704 22.9573 42.6054 23.2004 42.7562L23.6423 43.0303ZM36 26.7257V19.4921L23.4037 45.2264C24.1292 44.9585 24.5889 44.287 24.6229 43.5634C33.0977 39.8157 33.9672 30.8712 34.0511 29.454C35.1785 29.0603 36 27.9949 36 26.7257ZM4.33326 18.2392L5.8005 19.9009L6.07515 17.7012C6.86945 11.3396 11.946 6.51864 18.003 6.51864C24.0603 6.51864 29.1366 11.3378 29.9308 17.6973L30.2027 19.8747L31.6676 18.2409C31.815 18.0765 31.9931 17.9359 32.1968 17.8238L32.7349 17.5276L32.714 16.9137C32.423 8.36013 26.0411 1.3586 18.0029 1.3586C9.96292 1.3586 3.58085 8.36004 3.28988 16.9137L3.26893 17.5296L3.80963 17.8251C4.01327 17.9365 4.18824 18.075 4.33326 18.2392Z" stroke="#C83232" stroke-width="2"/>
</svg>
