<svg width="54" height="54" viewBox="0 0 54 54" fill="none" xmlns="http://www.w3.org/2000/svg">
<g filter="url(#filter0_d_61_128)">
<circle cx="27" cy="23" r="23" fill="white"/>
</g>
<path d="M35.5335 30.467L35.534 30.4675C35.6043 30.5372 35.66 30.6202 35.6981 30.7116C35.7362 30.803 35.7558 30.901 35.7558 31C35.7558 31.099 35.7362 31.197 35.6981 31.2884C35.66 31.3798 35.6043 31.4628 35.5339 31.5325L35.5325 31.534C35.4628 31.6043 35.3798 31.66 35.2884 31.6981C35.197 31.7362 35.099 31.7558 35 31.7558C34.901 31.7558 34.803 31.7362 34.7116 31.6981C34.6202 31.66 34.5372 31.6043 34.4675 31.534L34.467 31.5335L31.077 28.1335L30.9203 27.9763L30.7456 28.1133C29.3922 29.1757 27.7209 29.7521 26.0003 29.75H26C24.4672 29.75 22.9688 29.2955 21.6943 28.4439C20.4199 27.5923 19.4265 26.3819 18.8399 24.9658C18.2534 23.5497 18.0999 21.9914 18.3989 20.4881C18.698 18.9847 19.4361 17.6038 20.5199 16.5199C21.6038 15.4361 22.9847 14.698 24.4881 14.3989C25.9914 14.0999 27.5497 14.2534 28.9658 14.8399C30.3819 15.4265 31.5923 16.4199 32.4439 17.6943C33.2955 18.9688 33.75 20.4672 33.75 22V22.0003C33.7521 23.7209 33.1757 25.3922 32.1133 26.7456L31.9763 26.9203L32.1335 27.077L35.5335 30.467ZM20.8033 18.5277C20.1166 19.5555 19.75 20.7639 19.75 22C19.75 23.6576 20.4085 25.2473 21.5806 26.4194C22.7527 27.5915 24.3424 28.25 26 28.25C27.2361 28.25 28.4445 27.8834 29.4723 27.1967C30.5001 26.5099 31.3012 25.5338 31.7743 24.3918C32.2473 23.2497 32.3711 21.9931 32.1299 20.7807C31.8888 19.5683 31.2935 18.4547 30.4194 17.5806C29.5453 16.7065 28.4317 16.1113 27.2193 15.8701C26.0069 15.6289 24.7503 15.7527 23.6082 16.2258C22.4662 16.6988 21.4901 17.4999 20.8033 18.5277Z" stroke="#C83232" stroke-width="0.5"/>
<defs>
<filter id="filter0_d_61_128" x="0" y="0" width="54" height="54" filterUnits="userSpaceOnUse" color-interpolation-filters="sRGB">
<feFlood flood-opacity="0" result="BackgroundImageFix"/>
<feColorMatrix in="SourceAlpha" type="matrix" values="0 0 0 0 0 0 0 0 0 0 0 0 0 0 0 0 0 0 127 0" result="hardAlpha"/>
<feOffset dy="4"/>
<feGaussianBlur stdDeviation="2"/>
<feComposite in2="hardAlpha" operator="out"/>
<feColorMatrix type="matrix" values="0 0 0 0 0 0 0 0 0 0 0 0 0 0 0 0 0 0 0.25 0"/>
<feBlend mode="normal" in2="BackgroundImageFix" result="effect1_dropShadow_61_128"/>
<feBlend mode="normal" in="SourceGraphic" in2="effect1_dropShadow_61_128" result="shape"/>
</filter>
</defs>
</svg>
